HIERARCHY
ROOT Hips
{
	OFFSET 0.000000 71.427986 0.000000
	CHANNELS 6 Xposition Yposition Zposition Xrotation Yrotation Zrotation
	JOINT Pelvis
	{
		OFFSET 0.000000 0.000000 0.000000
		CHANNELS 3 Xrotation Yrotation Zrotation
		JOINT LeftUpLeg
		{
			OFFSET 6.797100 -2.508499 -1.318700
			CHANNELS 3 Xrotation Yrotation Zrotation
			JOINT LeftLeg
			{
				OFFSET 0.069008 -29.241863 0.690200
				CHANNELS 3 Xrotation Yrotation Zrotation
				JOINT LeftFoot
				{
					OFFSET -0.069008 -29.568123 -0.266800
					CHANNELS 3 Xrotation Yrotation Zrotation
					JOINT LeftToeBase
					{
						OFFSET 3.145500 -8.631000 16.059900
						CHANNELS 3 Xrotation Yrotation Zrotation
						End Site
						{
							OFFSET 0.000000 18.501587 0.000000
						}
					}
				}
			}
			JOINT Left_ShortSleeve
			{
				OFFSET 0.265923 -10.480953 1.153800
				CHANNELS 3 Xrotation Yrotation Zrotation
				End Site
				{
					OFFSET 1.725763 19.823879 0.000000
				}
			}
		}
		JOINT RightUpLeg
		{
			OFFSET -6.797100 -2.508499 -1.318700
			CHANNELS 3 Xrotation Yrotation Zrotation
			JOINT RightLeg
			{
				OFFSET -0.082453 -29.241932 0.688000
				CHANNELS 3 Xrotation Yrotation Zrotation
				JOINT RightFoot
				{
					OFFSET 0.082453 -29.568058 -0.264600
					CHANNELS 3 Xrotation Yrotation Zrotation
					JOINT RightToeBase
					{
						OFFSET -3.115300 -8.682800 16.113400
						CHANNELS 3 Xrotation Yrotation Zrotation
						End Site
						{
							OFFSET 0.000000 18.567114 0.000000
						}
					}
				}
			}
			JOINT Right_ShortSleeve
			{
				OFFSET -0.265923 -10.480953 1.153800
				CHANNELS 3 Xrotation Yrotation Zrotation
				End Site
				{
					OFFSET -1.725766 19.823910 0.000000
				}
			}
		}
	}
	JOINT Spine
	{
		OFFSET 0.000000 13.368103 0.470500
		CHANNELS 3 Xrotation Yrotation Zrotation
		JOINT Spine1
		{
			OFFSET 0.147000 13.837402 0.538800
			CHANNELS 3 Xrotation Yrotation Zrotation
			JOINT Spine2
			{
				OFFSET 0.168000 16.242897 -1.435500
				CHANNELS 3 Xrotation Yrotation Zrotation
				JOINT Neck
				{
					OFFSET 0.217200 18.631500 -1.679100
					CHANNELS 3 Xrotation Yrotation Zrotation
					JOINT Head
					{
						OFFSET 0.000000 6.599396 1.385900
						CHANNELS 3 Xrotation Yrotation Zrotation
						JOINT Hat
						{
							OFFSET -0.532200 27.220596 -10.096100
							CHANNELS 3 Xrotation Yrotation Zrotation
							End Site
							{
								OFFSET 0.000000 22.029861 0.000000
							}
						}
						JOINT HairD
						{
							OFFSET -10.777400 17.437393 -1.325900
							CHANNELS 3 Xrotation Yrotation Zrotation
							JOINT HairD1
							{
								OFFSET -3.290299 -11.051193 1.062200
								CHANNELS 3 Xrotation Yrotation Zrotation
								End Site
								{
									OFFSET 0.000000 11.579437 0.000000
								}
							}
						}
						JOINT HairB
						{
							OFFSET -10.777400 17.437393 1.467900
							CHANNELS 3 Xrotation Yrotation Zrotation
							JOINT HairB1
							{
								OFFSET -1.561200 -12.956299 3.590200
								CHANNELS 3 Xrotation Yrotation Zrotation
								End Site
								{
									OFFSET 0.000000 13.534866 0.000000
								}
							}
						}
						JOINT HairA
						{
							OFFSET 9.713100 17.437393 1.467900
							CHANNELS 3 Xrotation Yrotation Zrotation
							JOINT HairA1
							{
								OFFSET 1.561200 -12.956299 3.590200
								CHANNELS 3 Xrotation Yrotation Zrotation
								End Site
								{
									OFFSET 0.000000 13.534866 0.000000
								}
							}
						}
						JOINT HairC
						{
							OFFSET 9.713100 17.437393 -1.325900
							CHANNELS 3 Xrotation Yrotation Zrotation
							JOINT HairC1
							{
								OFFSET 3.290300 -11.051193 1.062200
								CHANNELS 3 Xrotation Yrotation Zrotation
								End Site
								{
									OFFSET 0.000000 11.579437 0.000000
								}
							}
						}
					}
				}
				JOINT LeftShoulder
				{
					OFFSET 5.101800 15.108002 -2.763700
					CHANNELS 3 Xrotation Yrotation Zrotation
					JOINT LeftArm
					{
						OFFSET 9.825497 2.506317 -1.597400
						CHANNELS 3 Xrotation Yrotation Zrotation
						JOINT LeftForeArm
						{
							OFFSET 21.966244 0.000000 0.000000
							CHANNELS 3 Xrotation Yrotation Zrotation
							JOINT LeftHand
							{
								OFFSET 33.879036 0.000000 0.000000
								CHANNELS 3 Xrotation Yrotation Zrotation
								JOINT LeftHandThumb1
								{
									OFFSET 6.715286 -2.359680 3.363841
									CHANNELS 3 Xrotation Yrotation Zrotation
									JOINT LeftHandThumb2
									{
										OFFSET 2.507072 -1.447464 1.447461
										CHANNELS 3 Xrotation Yrotation Zrotation
										JOINT LeftHandThumb3
										{
											OFFSET 2.898338 -1.673355 1.673357
											CHANNELS 3 Xrotation Yrotation Zrotation
											End Site
											{
												OFFSET -0.295959 3.727692 -0.131651
											}
										}
									}
								}
								JOINT LeftHandIndex1
								{
									OFFSET 14.190811 -0.254547 3.840278
									CHANNELS 3 Xrotation Yrotation Zrotation
									JOINT LeftHandIndex2
									{
										OFFSET 3.551727 0.000000 -0.000000
										CHANNELS 3 Xrotation Yrotation Zrotation
										JOINT LeftHandIndex3
										{
											OFFSET 2.894196 0.000000 0.000000
											CHANNELS 3 Xrotation Yrotation Zrotation
											End Site
											{
												OFFSET -1.000603 2.690872 0.366626
											}
										}
									}
								}
								JOINT LeftHandMiddle1
								{
									OFFSET 13.776489 0.000000 0.000000
									CHANNELS 3 Xrotation Yrotation Zrotation
									JOINT LeftHandMiddle2
									{
										OFFSET 3.438232 0.000000 0.000000
										CHANNELS 3 Xrotation Yrotation Zrotation
										JOINT LeftHandMiddle3
										{
											OFFSET 3.691551 0.000000 0.000000
											CHANNELS 3 Xrotation Yrotation Zrotation
											End Site
											{
												OFFSET -1.082298 3.499527 0.457670
											}
										}
									}
								}
								JOINT LeftHandRing1
								{
									OFFSET 13.966164 -0.268127 -3.067488
									CHANNELS 3 Xrotation Yrotation Zrotation
									JOINT LeftHandRing2
									{
										OFFSET 3.162567 0.000000 0.000000
										CHANNELS 3 Xrotation Yrotation Zrotation
										JOINT LeftHandRing3
										{
											OFFSET 3.324348 0.000000 0.000000
											CHANNELS 3 Xrotation Yrotation Zrotation
											End Site
											{
												OFFSET -0.861900 3.184998 0.405154
											}
										}
									}
								}
								JOINT LeftHandPinky1
								{
									OFFSET 13.131393 -0.168503 -5.746925
									CHANNELS 3 Xrotation Yrotation Zrotation
									JOINT LeftHandPinky2
									{
										OFFSET 2.849182 0.000000 0.000000
										CHANNELS 3 Xrotation Yrotation Zrotation
										JOINT LeftHandPinky3
										{
											OFFSET 2.805038 0.000000 0.000000
											CHANNELS 3 Xrotation Yrotation Zrotation
											End Site
											{
												OFFSET -0.882500 2.642609 0.325652
											}
										}
									}
								}
							}
							JOINT Left_Sleeve
							{
								OFFSET 6.592125 -0.646545 0.805568
								CHANNELS 3 Xrotation Yrotation Zrotation
								End Site
								{
									OFFSET -0.000179 20.275787 -0.000000
								}
							}
						}
					}
				}
				JOINT RightShoulder
				{
					OFFSET -5.731700 15.108002 -2.763700
					CHANNELS 3 Xrotation Yrotation Zrotation
					JOINT RightArm
					{
						OFFSET -9.825497 2.506317 -1.597400
						CHANNELS 3 Xrotation Yrotation Zrotation
						JOINT RightForeArm
						{
							OFFSET -21.966242 0.000000 0.000000
							CHANNELS 3 Xrotation Yrotation Zrotation
							JOINT RightHand
							{
								OFFSET -33.879032 0.000000 0.000000
								CHANNELS 3 Xrotation Yrotation Zrotation
								JOINT RightHandThumb1
								{
									OFFSET -6.715286 -2.359680 3.363841
									CHANNELS 3 Xrotation Yrotation Zrotation
									JOINT RightHandThumb2
									{
										OFFSET -2.507072 -1.447464 1.447461
										CHANNELS 3 Xrotation Yrotation Zrotation
										JOINT RightHandThumb3
										{
											OFFSET -2.898338 -1.673355 1.673357
											CHANNELS 3 Xrotation Yrotation Zrotation
											End Site
											{
												OFFSET 0.295959 3.727692 -0.131651
											}
										}
									}
								}
								JOINT RightHandIndex1
								{
									OFFSET -14.190811 -0.254547 3.840278
									CHANNELS 3 Xrotation Yrotation Zrotation
									JOINT RightHandIndex2
									{
										OFFSET -3.551727 0.000000 -0.000000
										CHANNELS 3 Xrotation Yrotation Zrotation
										JOINT RightHandIndex3
										{
											OFFSET -2.894196 0.000000 0.000000
											CHANNELS 3 Xrotation Yrotation Zrotation
											End Site
											{
												OFFSET 1.000603 2.690872 0.366626
											}
										}
									}
								}
								JOINT RightHandMiddle1
								{
									OFFSET -13.776489 0.000000 0.000000
									CHANNELS 3 Xrotation Yrotation Zrotation
									JOINT RightHandMiddle2
									{
										OFFSET -3.438232 0.000000 0.000000
										CHANNELS 3 Xrotation Yrotation Zrotation
										JOINT RightHandMiddle3
										{
											OFFSET -3.691551 0.000000 0.000000
											CHANNELS 3 Xrotation Yrotation Zrotation
											End Site
											{
												OFFSET 1.082298 3.499527 0.457670
											}
										}
									}
								}
								JOINT RightHandRing1
								{
									OFFSET -13.966164 -0.268127 -3.067488
									CHANNELS 3 Xrotation Yrotation Zrotation
									JOINT RightHandRing2
									{
										OFFSET -3.162567 0.000000 0.000000
										CHANNELS 3 Xrotation Yrotation Zrotation
										JOINT RightHandRing3
										{
											OFFSET -3.324348 0.000000 0.000000
											CHANNELS 3 Xrotation Yrotation Zrotation
											End Site
											{
												OFFSET 0.861900 3.184998 0.405154
											}
										}
									}
								}
								JOINT RightHandPinky1
								{
									OFFSET -13.131393 -0.168503 -5.746925
									CHANNELS 3 Xrotation Yrotation Zrotation
									JOINT RightHandPinky2
									{
										OFFSET -2.849182 0.000000 0.000000
										CHANNELS 3 Xrotation Yrotation Zrotation
										JOINT RightHandPinky3
										{
											OFFSET -2.805038 0.000000 0.000000
											CHANNELS 3 Xrotation Yrotation Zrotation
											End Site
											{
												OFFSET 0.882500 2.642609 0.325652
											}
										}
									}
								}
							}
							JOINT Right_Sleeve
							{
								OFFSET -6.592125 -0.646545 0.805568
								CHANNELS 3 Xrotation Yrotation Zrotation
								End Site
								{
									OFFSET 0.000179 20.275787 -0.000000
								}
							}
						}
					}
				}
				JOINT Bind_Right_JacketString
				{
					OFFSET -3.534800 11.969597 7.200700
					CHANNELS 3 Xrotation Yrotation Zrotation
					JOINT Bind_Right_JacketString1
					{
						OFFSET -0.319900 -6.102600 2.794100
						CHANNELS 3 Xrotation Yrotation Zrotation
						End Site
						{
							OFFSET 0.000000 6.719452 0.000000
						}
					}
				}
				JOINT Bind_Left_JacketString
				{
					OFFSET 2.904800 11.969597 7.200700
					CHANNELS 3 Xrotation Yrotation Zrotation
					JOINT Bind_Left_JacketString1
					{
						OFFSET 0.364800 -5.904503 3.186800
						CHANNELS 3 Xrotation Yrotation Zrotation
						End Site
						{
							OFFSET 0.000000 6.719513 0.000000
						}
					}
				}
				JOINT HairE
				{
					OFFSET 5.915200 17.612701 -11.592200
					CHANNELS 3 Xrotation Yrotation Zrotation
					JOINT HairE1
					{
						OFFSET 0.289200 -7.171898 -1.284500
						CHANNELS 3 Xrotation Yrotation Zrotation
						End Site
						{
							OFFSET 0.000000 7.291756 0.000000
						}
					}
				}
				JOINT HairF
				{
					OFFSET -0.864800 17.612701 -11.592200
					CHANNELS 3 Xrotation Yrotation Zrotation
					JOINT HairF1
					{
						OFFSET 0.000000 -14.087097 -2.127501
						CHANNELS 3 Xrotation Yrotation Zrotation
						End Site
						{
							OFFSET 0.000000 14.246841 0.000000
						}
					}
				}
				JOINT HairG
				{
					OFFSET -8.087700 17.612701 -11.592200
					CHANNELS 3 Xrotation Yrotation Zrotation
					JOINT HairG1
					{
						OFFSET -0.293600 -6.081398 -0.910100
						CHANNELS 3 Xrotation Yrotation Zrotation
						End Site
						{
							OFFSET 0.000000 6.156120 0.000000
						}
					}
				}
			}
		}
	}
	JOINT Pouch
	{
		OFFSET 0.000000 4.394501 10.847300
		CHANNELS 3 Xrotation Yrotation Zrotation
		End Site
		{
			OFFSET 0.000000 21.880577 0.000000
		}
	}
	JOINT Bag
	{
		OFFSET -13.229000 4.813004 -0.593300
		CHANNELS 3 Xrotation Yrotation Zrotation
		End Site
		{
			OFFSET 0.000000 21.880577 0.000000
		}
	}
	JOINT OccupyGuyFacialAnim_Joint
	{
		OFFSET 1.000000 -70.206398 -1.655000
		CHANNELS 3 Xrotation Yrotation Zrotation
		End Site
		{
			OFFSET 0.000000 21.880577 0.000000
		}
	}
}
MOTION
Frames: 4
Frame Time: 0.016667
-0.531008 68.321915 0.779410 1.363317 -27.068740 0.753454 0.000000 -0.000001 -0.000000 -25.892499 26.780072 12.423821 25.859911 8.705673 10.332674 -3.635715 0.901755 -11.684248 -0.000000 -0.000000 0.000000 -0.000000 -0.000000 -0.000000 -17.747914 -17.823442 -8.581306 32.215940 -0.917359 -7.253691 -16.328573 -2.112657 10.357231 0.000000 -0.000000 0.000000 -0.000001 0.000000 0.000000 3.674226 -1.978944 1.094195 1.363085 -0.820711 0.173835 1.366611 -0.813809 0.178820 -1.889906 4.550430 2.461104 17.045039 24.869851 -12.698043 0.000001 -0.000000 0.000000 0.000001 -0.000000 0.000000 0.000001 -0.000000 0.000000 0.000001 -0.000000 0.000000 -0.000001 -0.000000 -0.000000 0.000001 -0.000000 0.000000 -0.000001 -0.000000 -0.000000 0.000001 -0.000000 0.000000 0.000001 -0.000000 0.000000 -0.311618 3.473789 4.919197 -51.541799 -1.692561 -52.291901 0.001225 -84.594502 0.001230 -12.268095 -17.441595 -7.415589 27.590945 19.106308 -21.055322 27.859558 42.153008 14.703681 -0.000000 0.000001 -0.000001 6.438767 6.867050 -86.304631 7.312850 6.867683 -93.605291 0.000004 0.000000 -0.000002 6.436824 6.866917 -86.288430 7.314800 6.867575 -93.621519 -0.000001 -0.000001 0.000001 6.438733 6.866991 -86.304617 7.312868 6.867723 -93.605297 -0.000000 0.000000 -0.000001 10.514970 7.128949 -86.291025 7.312035 2.781444 -93.595291 0.000001 0.000001 0.000001 0.000002 -0.000002 0.000001 -1.129697 -10.661999 8.143390 -61.066973 65.570417 77.632545 0.000201 81.745883 -0.000212 -15.442868 16.436777 -32.999584 35.509593 -4.573221 10.809930 66.380805 -29.907998 29.548717 -0.000000 0.000000 -0.000001 5.945875 -6.875930 81.685347 8.620160 -6.744999 103.956565 -0.000001 0.000000 -0.000001 5.945875 -6.875924 81.685340 8.620176 -6.745019 103.956552 0.000001 -0.000001 0.000001 5.945849 -6.875867 81.685340 8.620183 -6.745029 103.956558 0.000000 0.000003 -0.000001 5.945872 -6.875920 81.685340 8.620181 -6.745026 103.956572 -0.000000 -0.000000 0.000000 0.000001 0.000003 0.000001 -0.000000 -0.000000 0.000000 -0.000000 0.000003 -0.000000 -0.000000 -0.000000 -0.000000 -0.000000 -0.000000 -0.000000 -0.000000 -0.000000 0.000000 -0.000000 0.000003 -0.000000 -0.000000 -0.000000 -0.000000 -0.000000 -0.000000 -0.000000 -0.000000 -0.000000 0.000000 -0.000000 0.000003 -0.000000 0.000000 -0.000001 -0.000000 0.000000 -0.000001 -0.000000 0.000000 -0.000001 -0.000000 
-0.530335 68.322556 0.777150 1.363683 -27.063238 0.747413 0.000000 0.000001 -0.000000 -25.912843 26.818598 12.444734 25.865160 8.658142 10.333846 -3.636991 0.901553 -11.672432 -0.000000 0.000000 -0.000000 -0.000000 0.000000 -0.000001 -17.740569 -17.820793 -8.563763 32.203727 -0.939572 -7.264408 -16.320392 -2.113489 10.366129 -0.000000 -0.000000 0.000000 0.000001 0.000006 0.000001 3.669390 -1.978929 1.094237 1.363088 -0.820713 0.173819 1.366617 -0.813810 0.178804 -1.882822 4.550448 2.481604 17.052704 24.883300 -12.703478 -0.000002 -0.000000 -0.000000 -0.000002 -0.000000 -0.000000 -0.000002 -0.000000 0.000000 -0.000002 -0.000000 0.000000 -0.000002 0.000000 0.000000 -0.000002 -0.000000 0.000000 -0.000002 0.000000 0.000000 -0.000002 -0.000000 -0.000000 -0.000002 -0.000000 -0.000000 -0.308283 3.435138 4.918952 -51.567525 -1.700398 -52.299360 0.000677 -84.588423 0.000674 -12.294682 -17.380820 -7.430967 27.590944 19.106315 -21.055317 27.859558 42.153001 14.703685 0.000003 -0.000000 -0.000001 6.438765 6.867053 -86.304631 7.312848 6.867681 -93.605291 0.000001 0.000003 -0.000001 6.436824 6.866916 -86.288423 7.314803 6.867575 -93.621519 0.000002 0.000001 0.000004 6.438732 6.866993 -86.304617 7.312875 6.867723 -93.605304 -0.000003 0.000001 0.000002 10.514967 7.128953 -86.291025 7.312037 2.781443 -93.595284 -0.000000 0.000001 0.000001 0.000004 -0.000000 0.000004 -1.127377 -10.685143 8.203406 -61.032747 65.576858 77.592643 -0.000148 81.763293 0.000149 -15.337692 16.323416 -32.921754 35.509593 -4.573215 10.809927 66.380805 -29.907998 29.548717 -0.000001 -0.000002 -0.000000 5.945875 -6.875923 81.685347 8.620156 -6.744996 103.956565 -0.000001 0.000002 0.000004 5.945876 -6.875921 81.685340 8.620168 -6.745014 103.956552 -0.000002 0.000001 0.000001 5.945846 -6.875862 81.685333 8.620179 -6.745034 103.956558 0.000002 0.000001 0.000001 5.945876 -6.875919 81.685340 8.620186 -6.745025 103.956572 -0.000000 0.000004 0.000001 0.000000 -0.000002 0.000001 0.000000 0.000001 -0.000000 0.000000 0.000001 -0.000000 0.000000 0.000001 -0.000000 0.000000 0.000001 -0.000000 0.000000 0.000001 -0.000000 0.000000 0.000001 -0.000000 0.000000 0.000001 -0.000000 0.000000 0.000001 -0.000000 0.000000 0.000001 -0.000000 0.000000 0.000001 -0.000000 0.000000 0.000001 -0.000000 0.000000 0.000001 -0.000000 0.000000 0.000001 -0.000000 
-0.531182 68.323174 0.775791 1.364048 -27.056956 0.741264 -0.000000 -0.000002 0.000000 -25.928556 26.846149 12.463074 25.868512 8.621149 10.333955 -3.637422 0.901328 -11.664016 0.000000 -0.000000 -0.000000 0.000002 0.000000 0.000000 -17.731675 -17.813258 -8.548740 32.193707 -0.966153 -7.265889 -16.314962 -2.113967 10.371685 -0.000000 0.000000 -0.000000 -0.000001 -0.000001 0.000000 3.662788 -1.979002 1.094365 1.361889 -0.820749 0.173847 1.365415 -0.813851 0.178832 -1.873935 4.545147 2.494240 17.054405 24.886832 -12.705631 0.000002 0.000000 0.000000 0.000002 0.000000 0.000000 0.000002 0.000000 0.000000 0.000002 0.000000 -0.000000 0.000000 -0.000000 -0.000000 0.000002 0.000000 -0.000000 0.000000 -0.000000 -0.000000 0.000002 0.000000 0.000000 0.000002 0.000000 0.000000 -0.307940 3.431329 4.918804 -51.600833 -1.706258 -52.314823 0.000130 -84.572413 0.000119 -12.351128 -17.378785 -7.461650 27.590949 19.106310 -21.055318 27.859558 42.153001 14.703681 0.000001 0.000001 -0.000004 6.438769 6.867056 -86.304631 7.312852 6.867681 -93.605291 0.000002 0.000001 0.000002 6.436828 6.866922 -86.288430 7.314804 6.867574 -93.621519 0.000001 0.000000 0.000002 6.438734 6.866991 -86.304624 7.312874 6.867721 -93.605304 -0.000003 0.000003 0.000001 10.514969 7.128957 -86.291025 7.312038 2.781443 -93.595284 0.000000 0.000003 0.000001 0.000004 0.000005 -0.000001 -1.125349 -10.703794 8.253321 -60.997995 65.595901 77.553567 -0.000050 81.773210 0.000035 -15.257905 16.188505 -32.872099 35.509593 -4.573220 10.809930 66.380805 -29.907998 29.548723 0.000001 -0.000001 0.000001 5.945875 -6.875928 81.685347 8.620159 -6.745000 103.956565 0.000003 -0.000006 -0.000001 5.945873 -6.875924 81.685340 8.620174 -6.745019 103.956552 0.000005 0.000000 0.000005 5.945851 -6.875862 81.685333 8.620180 -6.745035 103.956558 -0.000001 -0.000000 -0.000001 5.945878 -6.875920 81.685347 8.620185 -6.745023 103.956572 -0.000000 0.000001 0.000002 -0.000001 0.000001 -0.000002 0.000001 0.000003 -0.000001 0.000001 0.000003 -0.000001 0.000001 0.000003 -0.000001 0.000001 0.000003 -0.000001 0.000001 0.000003 -0.000001 0.000001 0.000003 -0.000001 0.000001 0.000003 -0.000001 0.000001 0.000003 -0.000001 0.000001 0.000003 -0.000001 0.000001 0.000003 -0.000001 -0.000000 -0.000002 0.000000 -0.000000 -0.000002 0.000000 -0.000000 -0.000002 0.000000 
-0.531961 68.323830 0.774177 1.364421 -27.051058 0.733906 0.000000 -0.000001 -0.000000 -25.949878 26.885447 12.487857 25.874881 8.570594 10.334162 -3.639598 0.901168 -11.652830 0.000000 0.000000 -0.000000 0.000002 0.000000 0.000000 -17.720637 -17.798056 -8.533313 32.182588 -0.995853 -7.261026 -16.309177 -2.113382 10.375574 0.000000 0.000000 -0.000000 0.000000 0.000001 0.000001 3.656091 -1.975682 1.094572 1.359633 -0.820063 0.173906 1.363165 -0.813144 0.178891 -1.864814 4.541539 2.505155 17.054356 24.890951 -12.708790 -0.000000 -0.000000 -0.000000 -0.000000 -0.000000 -0.000000 -0.000000 -0.000000 0.000000 -0.000000 -0.000000 -0.000000 -0.000002 0.000000 0.000000 -0.000000 -0.000000 -0.000000 -0.000002 0.000000 0.000000 -0.000000 -0.000000 -0.000000 -0.000000 -0.000000 -0.000000 -0.306418 3.435015 4.888568 -51.635872 -1.710345 -52.332790 0.001563 -84.553869 0.001554 -12.412341 -17.397702 -7.494347 27.590940 19.106308 -21.055318 27.859554 42.153004 14.703690 0.000000 0.000001 -0.000004 6.438765 6.867057 -86.304631 7.312850 6.867681 -93.605291 0.000002 0.000000 -0.000002 6.436826 6.866921 -86.288423 7.314802 6.867574 -93.621519 0.000001 -0.000000 -0.000001 6.438732 6.866992 -86.304617 7.312876 6.867722 -93.605297 -0.000001 0.000002 0.000004 10.514968 7.128953 -86.291025 7.312039 2.781446 -93.595284 -0.000000 0.000000 0.000001 0.000003 -0.000003 0.000003 -1.123386 -10.721033 8.300138 -60.963222 65.619840 77.514342 0.000328 81.780696 -0.000342 -15.193595 16.057443 -32.834454 35.509590 -4.573221 10.809934 66.380812 -29.907998 29.548713 0.000001 0.000000 0.000001 5.945870 -6.875929 81.685347 8.620162 -6.744997 103.956565 0.000001 0.000000 0.000002 5.945876 -6.875928 81.685340 8.620174 -6.745019 103.956552 0.000001 0.000000 0.000005 5.945849 -6.875866 81.685340 8.620184 -6.745038 103.956558 -0.000002 -0.000001 -0.000000 5.945874 -6.875922 81.685347 8.620181 -6.745026 103.956572 -0.000000 -0.000006 -0.000002 0.000000 -0.000002 0.000003 -0.000000 0.000002 -0.000000 -0.000000 0.000002 -0.000000 -0.000000 0.000002 0.000000 -0.000000 0.000002 0.000000 -0.000000 0.000002 -0.000000 -0.000000 0.000002 -0.000000 -0.000000 0.000002 0.000000 -0.000000 0.000002 0.000000 -0.000000 0.000002 -0.000000 -0.000000 0.000002 -0.000000 0.000000 -0.000001 -0.000000 0.000000 -0.000001 -0.000000 0.000000 -0.000001 -0.000000 
